<svg id="Layer_1" data-name="Layer 1" xmlns="http://www.w3.org/2000/svg" viewBox="0 0 1979.95 335.2"><defs><style>.cls-1{fill:#fff;}.cls-2{fill:#00053b;}.cls-3{fill:#0077a7;}</style></defs><path class="cls-1" d="M423.53,235s-68.84-87.38-217.8,0C66.4,316.66,1.31,233.07,1.31,233.07l44.86,49.45s65.53,99.41,229.32.66c117.24-70.69,192.89,1.23,192.89,1.23Z"/><path class="cls-2" d="M1.76,233s67.68,83.51,218.77-7.74c125.19-75.6,203,9.22,203,9.22l-156-171.8H252.79L203,1.42,127.53,102.18H111.32Z"/><polygon class="cls-1" points="203.06 14.79 132.74 108.78 115.38 108.78 75.19 157.28 131.48 125.5 176.97 146.95 203.06 105.76 203.06 14.79"/><polygon class="cls-1" points="297.04 105.69 263.85 69.05 226.96 69.05 297.04 105.69"/><path class="cls-3" d="M423.53,234.49S361.14,140,212.19,227.36C72.84,309.08,1.31,232.6,1.31,232.6s68.76,106.66,232.54,7.91c117.24-70.69,189.68-6,189.68-6"/><path class="cls-3" d="M446.53,259.21s-62.39-94.48-211.35-7.12c-139.34,81.72-210.86,5.23-210.86,5.23S93.07,364,256.85,265.23c117.25-70.69,189.68-6,189.68-6"/><path class="cls-3" d="M468.38,283.94S406,189.47,257,276.8c-139.34,81.73-210.87,5.25-210.87,5.25S114.92,388.7,278.7,290c117.24-70.69,189.68-6,189.68-6"/><path class="cls-2" d="M542,244.76c-19.6-.6-26.5,4.6-26.5,13.17,0,5.63,4,9.59,10.64,9.59,7.31,0,15.86-3.54,15.86-12.93Zm27.57,10.86c0,6.48,2.71,8.77,7.1,8.77a14.52,14.52,0,0,0,6-1.45v20.24c-4,2.51-9.19,3.55-15.86,3.55-12.31,0-19.82-4.8-23-15.24-4.38,11.89-14.81,15.89-28,15.89-17.14,0-28.4-10-28.4-26.53,0-21.53,17.34-33.2,54.48-31.11v-9.2c0-8.35-3.54-13.36-11.26-13.36s-11.71,5.23-12.12,14.2l-27.75-5.22c1.44-20.46,18.78-30,40.92-30,24,0,37.78,10.42,37.78,31.92Z"/><path class="cls-2" d="M655,217.22a29.37,29.37,0,0,0-10.86-1.68c-11.05,0-24.63,5.43-24.63,25.25v44.06h-28V188.38h24.19L619,214.91c4.21-16.69,13.58-30,39-28.6Z"/><path class="cls-2" d="M747,259c-3.56,19.4-20.25,28.41-40.71,28.41-28,0-46.56-18.18-46.56-50.32s18.59-50.94,46.78-50.94c23,0,37.56,12.3,39,31.72L722,224.3c-1.44-10.23-6.26-16.27-15.65-16.27-12.52,0-19.43,11-19.43,28.57,0,18.39,7.32,29.25,19.84,29.25,7.54,0,13.17-3.75,15.67-14.83Z"/><path class="cls-2" d="M824.2,281.09c-8.14,4.19-18.17,6.26-29.66,6.26-19.2,0-31.73-9-31.73-31.11V209.9h-14V188.38H763V167.94l28-3.32v23.76H819.6V209.9H790.79V250c0,10.23,4,13.57,11.7,13.57,6,0,11.27-2.07,16.9-6Z"/><path class="cls-2" d="M860.83,284.85h-28V188.4h28Zm-14-142.17c9.83,0,17.34,5.64,17.34,16.3,0,10.23-7.51,15.87-17.34,15.87-9.39,0-16.9-5.64-16.9-15.87,0-10.66,7.51-16.3,16.9-16.3"/><path class="cls-2" d="M959.52,259c-3.53,19.4-20.24,28.41-40.73,28.41-27.95,0-46.54-18.18-46.54-50.32s18.59-50.94,46.78-50.94c23,0,37.56,12.3,39,31.72l-23.6,6.46C933,214.07,928.2,208,918.79,208c-12.49,0-19.41,11-19.41,28.57,0,18.39,7.3,29.25,19.85,29.25,7.5,0,13.14-3.75,15.66-14.83Z"/><path class="cls-2" d="M1088.68,243.89c-19.94-.61-27,4.68-27,13.39,0,5.74,4,9.78,10.84,9.78,7.43,0,16.12-3.63,16.12-13.18Zm28,11c0,6.59,2.77,8.92,7.2,8.92a14.91,14.91,0,0,0,6.17-1.47V283c-4,2.54-9.36,3.59-16.14,3.59-12.54,0-20.18-4.87-23.36-15.5-4.46,12.1-15.07,16.16-28.44,16.16-17.43,0-28.89-10.2-28.89-27,0-21.89,17.63-33.77,55.42-31.64v-9.35c0-8.5-3.6-13.57-11.46-13.57s-11.9,5.29-12.32,14.42l-28.24-5.31c1.5-20.82,19.13-30.56,41.63-30.56,24.42,0,38.43,10.6,38.43,32.47Z"/><path class="cls-2" d="M1203.12,225.64c0-14.44-9.36-20.39-19.1-20.39-11.27,0-22.11,8.05-22.11,31.22,0,18.46,8.29,28.9,21.66,28.9,9.77,0,19.55-7.25,19.55-21.45Zm-.22-82.81h28.45V284.66h-24.63l-3.6-17c-3.63,14.89-15.95,19.54-30.59,19.54-21.67,0-39.06-17.19-39.06-49.47,0-33.57,15.7-53.5,43.72-53.5,12.53,0,23.16,5.92,25.71,15.28Z"/><path class="cls-2" d="M1237.89,186.56H1268l13.4,44.6A199.45,199.45,0,0,1,1288,263h.83a220.75,220.75,0,0,1,7-31.64l14.24-44.82h29.09l-35.68,98.12h-31.2Z"/><path class="cls-2" d="M1398.33,224.79a17.87,17.87,0,0,0,.22-3.41c0-9.13-5.32-16.13-15.53-16.13-10.6,0-17.39,8.05-18.44,19.54Zm3.18,27.18,24.22,8.28c-5.1,20-22.73,27-42,27-28,0-47.34-18.47-47.34-50.1,0-33.77,18.25-52.89,47.78-52.89,27.8,0,41.39,18.28,41.39,43.56a63.79,63.79,0,0,1-1.28,12.71h-60.51c.64,15.08,7.65,24.85,20.6,24.85,7.64,0,14-3,17.19-13.37"/><path class="cls-2" d="M1466.1,205.47c5.32-14.65,16.36-21.23,31.45-21.23s28.87,8.91,28.87,31v69.44H1498V225.87c0-10.85-3-17.88-13.17-17.88-9.11,0-17.83,5.12-17.83,22.75v53.92h-28.45v-98.1h24.22Z"/><path class="cls-2" d="M1609.79,280.84c-8.28,4.26-18.47,6.37-30.15,6.37-19.54,0-32.27-9.13-32.27-31.64V208.43h-14.23V186.56h14.45V165.75l28.43-3.38v24.19h29.09v21.87h-29.29V249.2c0,10.42,4,13.82,11.9,13.82,6.15,0,11.47-2.13,17.19-6.18Z"/><path class="cls-2" d="M1677,266.39c-3.42,13.4-12.31,20.84-30.36,20.84-17.41,0-29.53-8.93-29.53-31.66v-69h28.46v60.93c0,11.7,3.62,18.29,13.39,18.29s17.63-7.64,17.63-26.57V186.56H1705v98.12h-24.61Z"/><path class="cls-2" d="M1787.08,215.87a29.85,29.85,0,0,0-11-1.71c-11.26,0-25.07,5.54-25.07,25.69v44.81h-28.44v-98.1h24.62l3.42,27c4.22-17,13.81-30.56,39.68-29.09Z"/><path class="cls-2" d="M1854,224.79a17.11,17.11,0,0,0,.23-3.41c0-9.13-5.32-16.13-15.51-16.13-10.62,0-17.41,8.05-18.48,19.54Zm3.19,27.18,24.21,8.28c-5.11,20-22.74,27-42,27-28,0-47.36-18.47-47.36-50.1,0-33.77,18.27-52.89,47.75-52.89,27.85,0,41.42,18.28,41.42,43.56a62.34,62.34,0,0,1-1.26,12.71h-60.51c.62,15.08,7.64,24.85,20.59,24.85,7.65,0,14-3,17.2-13.37"/><path class="cls-2" d="M1910,252.61c2.13,10.62,9.75,14.64,19.1,14.64,7.86,0,13.37-2.77,13.37-8.49,0-5.52-3.82-8.06-12.52-10.19l-14.42-3.38c-17.21-4.48-25.07-14.25-25.07-29.1,0-24.85,19.74-31.85,39.91-31.85,23.35,0,37.38,8.49,38.87,27.59l-26.57,3.83c-1-7.86-5.49-10.41-13.57-10.41-6.59,0-11,3-11,8.08,0,4.87,3,7.64,9.55,8.91l13.81,3c20,4.26,29.29,14.86,29.29,31.63,0,21.87-18,30.39-42,30.39-24.19,0-38.22-6.83-42-25.27Z"/></svg>